<svg width="396" height="396" viewBox="0 0 396 396" fill="none" xmlns="http://www.w3.org/2000/svg">
<rect width="396" height="396" rx="47" fill="black"/>
<path d="M277.01 263.558L223.768 209.558C222.561 208.474 222.227 207.631 221.873 205.958V203.305V200.084C221.873 199.326 223.389 197.242 223.389 197.053C223.389 196.901 226.547 193.2 228.126 191.369L235.136 184.358L241.199 177.537L247.073 167.684L250.863 156.695L252.189 152.905C252.34 151.996 254.399 151.137 255.41 150.821C256.111 150.756 256.521 150.748 257.305 150.821C258.741 150.848 260.087 152.005 260.526 152.337L265.641 158.779L269.81 165.221L275.684 174.316L279.852 181.137L284.02 188.716L288.189 197.053L291.41 207.474L292.736 213.726L293.305 219.032L293.684 225.284V230.59C293.557 233.621 293.305 239.76 293.305 240.063C293.305 240.366 292.673 244.99 292.357 247.263C292.357 248.931 290.084 254.526 288.947 257.116L286.863 260.716C286.863 261.171 285.473 262.548 284.778 263.179C284.273 263.558 282.921 264.392 281.557 264.695C280.193 264.998 277.957 264.063 277.01 263.558Z" fill="white"/>
<path d="M220.891 307.937C213.337 300.426 213.303 288.214 220.814 280.66L230.191 271.23C237.702 263.676 249.914 263.642 257.468 271.153C265.022 278.664 265.056 290.876 257.545 298.43L248.168 307.86C240.657 315.414 228.445 315.448 220.891 307.937Z" fill="white"/>
<path d="M151.2 234.189C141.663 244.231 122.286 264.429 121.074 264.884H115.579L110.842 261.853L105.916 255.032L101.558 243.474L100.421 231.347L101.558 220.358L103.831 210.695L108.947 198.568L115.579 188.905L168.631 129.789L173.179 122.21C174.568 118.547 177.65 110.842 178.863 109.326C180.076 107.81 181.768 95.0526 182.463 88.8631L183.031 80.3368L184.737 76.1684C184.737 74.8421 187.579 72.9473 187.768 72.7579C187.92 72.6063 190.358 72.4421 191.558 72.3789L194.968 75.0315L202.547 82.6105L210.126 90L215.431 96.4421L221.305 104.021L226.231 113.684L229.452 122.21L231.158 130.547L232.105 136.8V147.41L230.779 153.663L228.695 159.158L224.147 167.116L218.463 173.937L210.126 182.463L204.063 188.337C203.684 188.526 203.305 188.716 202.547 188.905H199.516C198.899 188.785 198.645 188.625 198.196 188.341L198.189 188.337L188.716 181.137C187.845 180.452 187.317 180.18 186.252 180H180.568C179.121 180.063 178.47 180.426 177.537 181.516L159.347 201.979C158.21 203.495 156.526 205.388 155.937 206.526C155.395 207.571 154.667 208.797 154.61 210.695V228.884C154.275 230.187 153.63 231.271 151.2 234.189Z" fill="white"/>
<path d="M134.336 274.358L166.547 241.769C168.185 239.756 168.845 238.57 169.199 236.274V217.516L170.336 215.053L171.284 213.158L181.136 202.737C182.308 201.909 183.026 201.666 184.357 201.411H186.252C187.613 201.748 188.389 202.044 189.094 202.737L228.694 242.147C229.386 242.975 229.714 243.472 229.831 244.611V248.969C229.715 250.008 229.438 250.526 228.884 251.432L220.736 259.769L168.252 312.442C167.747 312.695 166.66 313.2 166.357 313.2H163.326C162.315 312.821 160.256 311.987 160.105 311.684C159.953 311.381 142.105 293.621 133.199 284.779C132.757 284.147 131.873 282.657 131.873 281.747V278.147C132.477 276.427 133.063 275.629 134.336 274.358Z" fill="white"/>
<path d="M131.873 281.747V278.147C132.477 276.427 133.063 275.629 134.336 274.358L166.547 241.769C168.185 239.756 168.845 238.57 169.199 236.274V217.516L170.336 215.053L171.284 213.158L181.136 202.737C182.308 201.909 183.026 201.666 184.357 201.411H186.252C187.613 201.748 188.389 202.044 189.094 202.737L228.694 242.147C229.386 242.975 229.714 243.472 229.831 244.611V248.969C229.715 250.008 229.438 250.526 228.884 251.432L220.736 259.769L168.252 312.442C167.747 312.695 166.66 313.2 166.357 313.2M166.357 313.2C166.054 313.2 164.21 313.2 163.326 313.2M131.873 281.747C131.873 282.657 132.757 284.147 133.199 284.779C142.105 293.621 159.953 311.381 160.105 311.684C160.256 311.987 162.315 312.821 163.326 313.2H166.357M131.873 281.747C131.873 281.444 131.873 279.221 131.873 278.147M223.768 209.558L277.01 263.558C277.957 264.063 280.193 264.998 281.557 264.695C282.921 264.392 284.273 263.558 284.778 263.179C285.473 262.548 286.863 261.171 286.863 260.716L288.947 257.116C290.084 254.526 292.357 248.931 292.357 247.263C292.673 244.99 293.305 240.366 293.305 240.063C293.305 239.76 293.557 233.621 293.684 230.59V225.284L293.305 219.032L292.736 213.726L291.41 207.474L288.189 197.053L284.02 188.716L279.852 181.137L275.684 174.316L269.81 165.221L265.641 158.779L260.526 152.337C260.087 152.005 258.741 150.848 257.305 150.821C256.521 150.748 256.111 150.756 255.41 150.821C254.399 151.137 252.34 151.996 252.189 152.905L250.863 156.695L247.073 167.684L241.199 177.537L235.136 184.358L228.126 191.369C226.547 193.2 223.389 196.901 223.389 197.053C223.389 197.242 221.873 199.326 221.873 200.084V203.305V205.958C222.227 207.631 222.561 208.474 223.768 209.558ZM248.168 307.86L257.545 298.43C265.056 290.876 265.022 278.664 257.468 271.153C249.914 263.642 237.702 263.676 230.191 271.23L220.814 280.66C213.303 288.214 213.337 300.426 220.891 307.937C228.445 315.448 240.657 315.414 248.168 307.86ZM121.074 264.884C122.286 264.429 141.663 244.231 151.2 234.189C153.63 231.271 154.275 230.187 154.61 228.884V210.695C154.667 208.797 155.395 207.571 155.937 206.526C156.526 205.388 158.21 203.495 159.347 201.979L177.537 181.516C178.47 180.426 179.121 180.063 180.568 180H186.252C187.317 180.18 187.845 180.452 188.716 181.137L198.189 188.337L198.196 188.341C198.645 188.625 198.899 188.785 199.516 188.905H202.547C203.305 188.716 203.684 188.526 204.063 188.337L210.126 182.463L218.463 173.937L224.147 167.116L228.695 159.158L230.779 153.663L232.105 147.41V136.8L231.158 130.547L229.452 122.21L226.231 113.684L221.305 104.021L215.431 96.4421L210.126 90L202.547 82.6105L194.968 75.0315L191.558 72.3789C190.358 72.4421 187.92 72.6063 187.768 72.7579C187.579 72.9473 184.737 74.8421 184.737 76.1684L183.031 80.3368L182.463 88.8631C181.768 95.0526 180.076 107.81 178.863 109.326C177.65 110.842 174.568 118.547 173.179 122.21L168.631 129.789L115.579 188.905L108.947 198.568L103.831 210.695L101.558 220.358L100.421 231.347L101.558 243.474L105.916 255.032L110.842 261.853L115.579 264.884H121.074Z" stroke="white"/>
</svg>
